<?xml version="1.0" encoding="UTF-8"?>
<svg id="Layer_1" xmlns="http://www.w3.org/2000/svg" version="1.1" viewBox="0 0 619.06 300">
  <!-- Generator: Adobe Illustrator 29.0.1, SVG Export Plug-In . SVG Version: 2.1.0 Build 192)  -->
  <defs>
    <style>
      .st0 {
        fill: #3ab64b;
      }
    </style>
  </defs>
  <path class="st0" d="M323.29,6.94c19.1,13.22,43.85,44.26,54.89,64.9,10.6,19.8,13.22,43.77,9.48,66.02-1.1,6.54-25.69,57.98-28.83,59.88-5.19,3.15-48.07.49-59.83.73-12.28.25-26.69,6.28-37.92-3.6-3.17-2.8-22.03-38.16-24.16-43.87-21.3-57.3,19.93-107.76,59.75-144.05h26.62Z"/>
  <path class="st0" d="M60.05,279.04h-8.87c-19.56-12.14-45.52-24.1-49.5-49.58-2.3-14.72-4.18-57.95,8.11-67.22,18.57-14.01,71.31,11.09,84.08,28.27,6.98,9.4,17.16,47.88,12.12,55.97s-39.34,21.05-45.94,32.57Z"/>
  <path class="st0" d="M619.06,172.57v59.15c-6.9,27.55-28.08,31.6-47.32,47.32h-11.83l-45.93-32.37c2.49-16.43,1.64-35.48,8.78-50.63,10.2-21.66,80.89-57.37,96.31-23.48Z"/>
  <path class="st0" d="M216.57,207.82c-26.66.3-49.86,16.24-75.01,21.03-7.29-1.02-38.35-37.7-42.28-46.71-12.78-29.32-4.36-57.8,6.76-86.32,20.97-53.83,55.81-29.1,88.5-.05,39.76,35.33,31.61,64.13,22.04,112.06Z"/>
  <path class="st0" d="M502.7,73.01c16.38,16.55,28.63,74.78,24,97.41-2.72,13.31-36.45,57.27-48.25,58.44-11.52,1.14-55.39-23.75-72.42-22.2-8.25-28.82-15.35-61.24.12-88.76,9.77-17.38,61.21-58.37,80.6-54.26,3.24.69,13.49,6.89,15.96,9.38Z"/>
</svg>