<?xml version="1.0" encoding="UTF-8"?>
<svg id="Layer_1" xmlns="http://www.w3.org/2000/svg" version="1.1" viewBox="0 0 1347.43 300">
  <!-- Generator: Adobe Illustrator 29.0.1, SVG Export Plug-In . SVG Version: 2.1.0 Build 192)  -->
  <defs>
    <style>
      .st0 {
        fill: #3ab64b;
      }
    </style>
  </defs>
  <path class="st0" d="M760.28,104c5.92,3.15,13.8,8.32,14.94,15.56,1.71,10.95-.26,25.03-11.95,28.94.02.76,10.43.71,11.77,8.23,2.06,11.55-1.03,27.25.24,39.27h-22c-1.28-9.7,1.82-24.22-.21-33.29-1.88-8.36-12.48-6.76-18.79-6.72v40.01s-21.99,0-21.99,0v-92h48ZM734.28,144c17.78,1.98,20.7-4.04,19.06-20.56-1.03-10.35-11.11-8.55-19.06-8.44v29Z"/>
  <path class="st0" d="M339.28,104c7.82,4.41,13.73,9.06,14.89,18.61l.11,73.39h-22v-40h-19v40h-22l.06-76.44c2.11-8.03,8.03-12.01,14.94-15.56h33ZM332.28,144v-21.5c0-5.8-8.47-8.91-13.75-6.74-.96.39-5.25,4.39-5.25,4.74v23.5h19Z"/>
  <path class="st0" d="M528.28,104c7.29,3.64,13.38,9.1,14.91,17.59l.09,74.41h-22v-40h-19v40h-22l.11-74.39c1.3-9.12,7.19-13.73,14.89-17.61h33ZM521.28,144v-22.5c0-.32-3.39-4.52-4.02-4.98-4.9-3.59-14.98.14-14.98,4.98v22.5h19Z"/>
  <path class="st0" d="M171.28,104c7.65,3.93,12.65,8.56,13.89,17.61l.11,74.39h-22l1-40h-20v40h-21l.09-76.41c1.48-8.01,8.03-12.36,14.91-15.59h33ZM163.28,144c.32-3.55.05-6.06.03-9.32-.03-4.64,1.05-10.32-.5-14.72-3.11-8.86-18.53-4.94-18.53,2.54v21.5h19Z"/>
  <path class="st0" d="M855.28,104c8.15,4.52,13.42,8.95,14.74,18.76,1.66,12.31,1.17,37.96.31,50.79-.81,12.03-4.28,17.07-15.05,22.45h-33c-8.6-3.49-14.17-8.78-15.04-18.46-1.65-18.41,1.26-39.29.1-57.98,2.17-7.54,7.3-12.04,13.94-15.56h34ZM835.99,115.21c-2.36.54-6.23,3.9-6.69,6.32,1.68,17.39-2.31,39.19-.08,56.03,1.24,9.37,17.11,11.03,18.99-1.12,1.48-9.61,1.07-39.73.05-49.92-.75-7.45-3.7-13.25-12.28-11.3Z"/>
  <path class="st0" d="M923.28,104l.06,72.44c1.73,11.23,16.32,11.89,18.88,1.01l.06-73.44h22l-.09,75.41c-1.59,8.11-7.55,13.47-14.91,16.59h-33c-7.29-3.64-13.38-9.1-14.91-17.59l-.09-74.41h22Z"/>
  <path class="st0" d="M408.28,104v81.01c9.47.38,16.87,1.53,18.91-9.6l.09-71.41h21c-1.18,19.66,1.57,41.09.04,60.54-1.3,16.44-12.21,26.34-27.04,31.46h-36v-92h23Z"/>
  <path class="st0" d="M668.1,104c1.04,0,2.05.31,2.91.9,2.29,1.55,2.43,1.74,4.6,4.37,1.73,2.09,6.97,13.95,4.72,15.26-1.76.58-10.33.89-10.95.35-1.08-.94-.7-8.3-6.82-9.67-2.81-.63-10.8-.59-13.85-.28-5.57.56-8.67,4.1-9.35,9.65-.89,7.26-1.13,47.77.58,53.25,2.82,9.06,15.52,10.26,18.57.89.78-2.4,1.58-21.93.78-22.73-.66-.66-9.1,1.18-10.57-.93-1.04-1.5-.85-11.06,1.06-11.06h30c.83,0,1.5.68,1.5,1.5v31c0,.33-1.23,5.74-1.48,6.52-1.82,5.72-5.56,8.67-10.24,11.03-2.56,1.29-5.4,1.95-8.28,1.95h-24.76c-2.49,0-4.94-.64-7.12-1.85-5.36-2.97-9.8-7.39-10.89-13.89-1.94-11.57-1.22-44.25-.28-56.8.62-8.22,4.19-13.58,10.45-17.25,2.51-1.47,5.38-2.21,8.29-2.21,7.81,0,25.69,0,31.12,0Z"/>
  <polygon class="st0" points="54.28 104 54.29 140 86.28 104 105.28 104 65.35 150.36 105.28 196 83.28 196 54.79 162.99 54.28 196 33.28 196 33.28 104 54.28 104"/>
  <path class="st0" d="M1043.28,104c20.39,5.32,21.81,40.12,4.7,49.21-.95.51-5.81,2.79-6.2,2.79h-23.5v40h-22v-92h47ZM1018.28,144c16.93,1.78,20.77-3.2,19.06-19.56-1.12-10.74-10.67-9.81-19.06-9.44v29Z"/>
  <path class="st0" d="M1213.28,104c6.46,4.47,14.82,14.96,18.56,21.94,3.58,6.7,4.47,14.8,3.2,22.32-.37,2.21-8.69,19.6-9.75,20.25-1.75,1.06-16.25.16-20.23.25s-9.03,2.12-12.82-1.22c-1.07-.95-7.45-12.9-8.17-14.83-7.2-19.37,6.74-36.44,20.2-48.7h9Z"/>
  <path class="st0" d="M270.28,104c-.14,2.05.79,11-1.5,11h-19.5v81h-22v-81h-20c-.55,0,.4-9.66,0-11h63Z"/>
  <path class="st0" d="M1124.28,196h-3c-6.61-4.11-15.39-8.15-16.74-16.76-.78-4.98-1.41-19.59,2.74-22.73,6.28-4.74,24.11,3.75,28.43,9.56,2.36,3.18,5.8,16.19,4.1,18.92s-13.3,7.12-15.53,11.01Z"/>
  <path class="st0" d="M1313.28,160v20c-2.33,9.32-9.49,10.68-16,16h-4l-15.53-10.94c.84-5.55.56-11.99,2.97-17.12,3.45-7.32,27.35-19.4,32.56-7.94Z"/>
  <path class="st0" d="M1177.2,171.92c-9.02.1-16.86,5.49-25.36,7.11-2.46-.34-12.97-12.75-14.29-15.79-4.32-9.91-1.47-19.54,2.28-29.19,7.09-18.2,18.87-9.84,29.92-.02,13.44,11.95,10.69,21.68,7.45,37.89Z"/>
  <path class="st0" d="M1273.94,126.34c5.54,5.59,9.68,25.28,8.11,32.93-.92,4.5-12.32,19.36-16.31,19.76s-18.73-8.03-24.49-7.51c-2.79-9.75-5.19-20.7.04-30.01,3.3-5.88,20.7-19.74,27.25-18.35,1.09.23,4.56,2.33,5.4,3.17Z"/>
</svg>